<?xml version="1.0" encoding="UTF-8" standalone="no"?>
<!-- Created with Inkscape (http://www.inkscape.org/) -->

<svg
   xmlns:dc="http://purl.org/dc/elements/1.1/"
   xmlns:cc="http://creativecommons.org/ns#"
   xmlns:rdf="http://www.w3.org/1999/02/22-rdf-syntax-ns#"
   xmlns:svg="http://www.w3.org/2000/svg"
   xmlns="http://www.w3.org/2000/svg"
   xmlns:sodipodi="http://sodipodi.sourceforge.net/DTD/sodipodi-0.dtd"
   xmlns:inkscape="http://www.inkscape.org/namespaces/inkscape"
   viewBox="0 0 210 297"
   version="1.1"
   id="logo"
   inkscape:version="0.92.4 (5da689c313, 2019-01-14)"
   sodipodi:docname="gs logo2.svg">
  <defs
     id="defs1044" />
  <sodipodi:namedview
     id="base"
     pagecolor="#ffffff"
     bordercolor="#666666"
     borderopacity="1.0"
     inkscape:pageopacity="0.0"
     inkscape:pageshadow="2"
     inkscape:zoom="0.35"
     inkscape:cx="-85.714286"
     inkscape:cy="560"
     inkscape:document-units="mm"
     inkscape:current-layer="layer1"
     showgrid="false"
     inkscape:window-width="1920"
     inkscape:window-height="1017"
     inkscape:window-x="1912"
     inkscape:window-y="-8"
     inkscape:window-maximized="1" />
  <metadata
     id="metadata1047">
    <rdf:RDF>
      <cc:Work
         rdf:about="">
        <dc:format>image/svg+xml</dc:format>
        <dc:type
           rdf:resource="http://purl.org/dc/dcmitype/StillImage" />
        <dc:title></dc:title>
      </cc:Work>
    </rdf:RDF>
  </metadata>
  <g
     inkscape:label="Ebene 1"
     inkscape:groupmode="layer"
     id="layer1">
    <path
      fill="currentColor"
       sodipodi:nodetypes="cccccccccccccccscccccccccccsccccssccccccccccccccscscccccccccccccccccccccccccccccccccccccccccccccccccsscccccccccccccccccccccccccccc"
       inkscape:connector-curvature="0"
       id="path826"
       d="M 104.25155,50.381725 C 80.749253,49.375241 57.937268,57.92676 41.012634,74.088039 6.5668829,106.97978 5.4233069,161.80326 38.453171,196.78916 l 51.132862,-48.82589 c -0.37334,-0.61048 -0.6558,-1.06476 -0.6558,-1.06476 0,0 -1.39892,-4.1168 -1.46001,-6.25791 -0.0463,-1.62258 0.13469,-3.47358 0.24428,-5.09312 0.12691,-1.87436 0.38077,-5.33672 0.38077,-5.33672 l 0.20892,-6.46683 0.41704,-4.38005 c 0,0 -2.96572,-0.16148 -4.38004,0.20812 -1.80511,0.47173 -3.29446,1.76218 -5.0068,2.50301 -1.29219,0.55904 -2.58003,1.19712 -3.96301,1.46083 -2.86953,0.54708 -5.84037,0.14734 -8.76094,0.20811 -3.893551,0.0812 -11.681739,0.20893 -11.681739,0.20893 0,0 -2.638967,1.49436 -3.754898,2.50299 -1.136046,1.02679 -1.641286,1.70312 -2.920045,3.02491 -0.307909,0.31816 -0.922772,-0.0453 -1.042966,-0.5219 -0.177463,-0.70391 0.378258,-1.40359 0.625964,-2.08597 0.180644,-0.49777 0.625928,-1.46001 0.625928,-1.46001 0.08095,-0.0807 -3.707139,-1.33517 -5.632754,-2.08598 -0.988844,-0.38555 -2.297581,-0.69145 -2.711119,-1.66893 -0.264781,-1.10603 0.750753,-1.11075 2.102901,-1.46163 1.067465,-0.16021 2.479922,-0.30897 3.37254,-0.41541 1.507658,-0.17976 2.814981,-0.43106 4.328437,-0.20893 0.718265,0.10538 2.085968,0.62597 2.085968,0.62597 l 6.883056,-1.25191 c 0,0 4.953021,-1.47331 7.509827,-1.66813 2.08456,-0.15883 6.25791,0.41702 6.25791,0.41702 l 7.5098,-2.71192 6.25791,-3.12895 3.96304,-2.92002 c 0,0 -1.56217,-5.37063 -1.87708,-8.13577 -0.33831,-2.970672 -0.35471,-6.000252 0,-8.969022 0.27998,-2.34434 1.02833,-4.61118 1.66815,-6.88386 0.55413,-1.968478 1.15418,-3.928189 1.87786,-5.840866 0.42966,-1.135749 1.46,-3.337878 1.46,-3.337878 l -0.20892,-4.171933 c 0,0 -2.09301,-2.449778 -2.29409,-3.963018 -0.14211,-1.070025 0.26408,-2.212275 0.83404,-3.128949 0.39028,-0.627696 1.66897,-1.460023 1.66897,-1.460023 l 2.7119,-2.502999 2.08597,-2.92084 c 0,0 0.77617,-3.116703 1.877067,-4.171933 0.54063,-0.518213 1.3798,-0.584677 2.08597,-0.834069 0.89177,-0.314944 2.71194,-0.834872 2.71194,-0.834872 l 1.45996,1.042984 c 0,0 -0.37023,1.54448 -0.62596,2.294887 -0.4123,1.210008 -0.93041,2.382501 -1.45997,3.545987 -0.51528,1.132084 -1.19296,2.188727 -1.66893,3.337875 -0.58902,1.421995 -1.2135,2.860764 -1.46004,4.380045 -0.24534,1.509953 0,4.589781 0,4.589781 l 0.62596,1.251097 c 0,0 3.14008,1.429744 4.79791,1.877852 2.17396,0.58764 4.48004,0.538855 6.6749,1.042984 2.55097,0.585925 7.50898,2.294085 7.50898,2.294085 0,0 1.76193,0.690356 2.39168,1.620538 0.70169,1.036387 0.54851,2.14902 0.73729,3.38627 0.17605,1.152225 -0.004,3.059935 0.0848,4.221945 0.33478,4.27427 -0.91876,11.83985 -0.91876,11.83985 l -1.46001,6.048982 0.20821,6.67495 0.83493,3.33787 0.19585,1.5673 40.77075,-38.931635 C 148.00275,60.953728 126.70404,51.343204 104.25155,50.381725 Z m 19.09713,71.110065 c -117.3702531,185.34421 -58.685103,92.67213 0,0 z m 0,0 v 4.33811 l -0.41781,4.17194 -2.92005,6.04979 -3.33705,5.42304 -2.71193,5.21492 -2.29489,3.54597 -1.04297,8.55281 -1.043,4.17193 -1.45999,3.75491 -0.62597,5.00599 -0.41704,5.00601 -1.04296,6.46683 -0.20893,2.50301 0.41789,6.46683 1.04293,6.88306 0.83412,6.04979 -0.41708,6.04898 -0.83486,3.7549 -1.25108,7.92683 -0.34856,4.00738 c 21.89949,-0.20645 42.83144,-8.6719 58.61603,-23.70549 34.44092,-32.92434 35.53893,-87.7759 2.45698,-122.739017 z m -23.552197,105.23899 -0.0177,-9.95313 c 0,0 -1.08804,-9.3014 -1.25193,-13.97582 -0.0633,-1.80704 0.36387,-3.6335 0.10499,-5.42305 -0.31356,-2.1655 -1.64771,-4.09554 -1.98193,-6.2579 -0.66905,-4.32911 0,-13.14177 0,-13.14177 0,0 -0.90838,-8.05895 -1.25192,-12.09877 -0.17711,-2.08308 0.1308,-4.24036 -0.41701,-6.2579 -0.20362,-0.75025 -0.75121,-1.36541 -1.043,-2.08597 -0.51998,-1.28413 -0.69992,-2.69194 -1.25111,-3.96302 -0.23544,-0.54304 -0.57538,-1.18912 -0.94052,-1.86738 l -50.570607,48.34272 c 15.491501,16.02438 36.472227,25.53078 58.622477,26.68199 z M 107.71201,80.344332 c 0.59001,0.295006 2.61813,2.359102 3.53952,3.834766 0.50291,0.80545 0.87774,1.71778 1.0325,2.65465 0.18418,1.11676 -0.1467,3.39272 -0.1467,3.39272 0,0 -0.16757,1.01304 0,1.47534 0.1308,0.36108 0.6172,0.52012 0.73729,0.88489 0.26159,0.79529 0.2022,1.67152 0.14776,2.50703 -0.0445,0.68862 -0.44284,2.06499 -0.44284,2.06499 l -1.47456,1.32773 0.7008,4.899792 c 0,0 1.48574,-3.393062 2.10148,-4.899792 0.33513,-0.82049 0.72116,-1.63673 0.88491,-2.50784 0.28175,-1.49872 -0.0283,-3.05711 0.14777,-4.57203 0.11489,-0.9962 0.41205,-1.96292 0.58966,-2.94988 0.22024,-1.22512 0.60133,-2.52879 0.14777,-3.68795 -0.31922,-0.81517 -0.89601,-1.13326 -1.62216,-1.622151 -1.31528,-0.885519 -2.6451,-1.804237 -4.13002,-2.360226 -0.70433,-0.26372 -2.21259,-0.442039 -2.21259,-0.442039 z m -10.324997,20.502348 0.292,4.12999 c 0,0 0.24534,1.47026 0.88807,1.76976 0.40356,0.18803 0.8977,1.14158 1.2539,0.87451 0.511387,-0.38342 0.777447,-2.37626 0.701577,-3.01091 -0.10853,-0.90808 -1.659457,-1.73806 -1.659457,-1.73806 z"
       style="opacity:1;stroke:none;stroke-width:0;stroke-linecap:round;stroke-linejoin:round;stroke-miterlimit:4;stroke-dasharray:none;stroke-dashoffset:0;stroke-opacity:1;paint-order:fill markers stroke" />
  </g>
</svg>
